<svg width="80" height="80" viewBox="0 0 80 80" fill="none" xmlns="http://www.w3.org/2000/svg">
<path d="M40.0001 75.8332C20.2334 75.8332 4.16675 59.7665 4.16675 39.9998C4.16675 20.2332 20.2334 4.1665 40.0001 4.1665C59.7667 4.1665 75.8334 20.2332 75.8334 39.9998C75.8334 59.7665 59.7667 75.8332 40.0001 75.8332ZM40.0001 9.1665C23.0001 9.1665 9.16675 22.9998 9.16675 39.9998C9.16675 56.9998 23.0001 70.8332 40.0001 70.8332C57.0001 70.8332 70.8334 56.9998 70.8334 39.9998C70.8334 22.9998 57.0001 9.1665 40.0001 9.1665Z" fill="#22A57E"/>
<path d="M35.2666 51.9332C34.5999 51.9332 33.9666 51.6665 33.4999 51.1998L24.0666 41.7665C23.0999 40.7998 23.0999 39.1998 24.0666 38.2332C25.0332 37.2665 26.6332 37.2665 27.5999 38.2332L35.2666 45.8998L52.3999 28.7665C53.3666 27.7998 54.9666 27.7998 55.9332 28.7665C56.8999 29.7332 56.8999 31.3332 55.9332 32.2998L37.0332 51.1998C36.5666 51.6665 35.9332 51.9332 35.2666 51.9332Z" fill="#22A57E"/>
</svg>
